<?xml version="1.0" encoding="UTF-8"?>
<svg id="contents" xmlns="http://www.w3.org/2000/svg" viewBox="0 0 317.4 270.97">
  <defs>
    <style>
      .cls-1 {
        fill: #fff;
      }

      .cls-2 {
        fill: #00c0ff;
      }
    </style>
  </defs>
  <g>
    <path class="cls-1" d="M135.92,0h-15.71v8.42C110.97,3.06,100.25,0,88.8,0,54.1,0,25.98,28.13,25.98,62.84s28.13,62.82,62.82,62.82c11.45,0,22.17-3.06,31.42-8.41v8.42h15.71c8.68,0,15.71-7.04,15.71-15.71V15.71C151.63,7.03,144.6,0,135.92,0ZM88.8,94.25c-17.35,0-31.42-14.07-31.42-31.42s14.07-31.42,31.42-31.42,31.42,14.07,31.42,31.42-14.07,31.42-31.42,31.42Z"/>
    <path class="cls-2" d="M224.94,0c-11.44,0-22.17,3.06-31.42,8.41V0h-15.71c-8.68,0-15.71,7.03-15.71,15.71v94.25c0,8.67,7.03,15.71,15.71,15.71h15.71v-8.41c9.24,5.34,19.97,8.41,31.42,8.41,34.7,0,62.83-28.13,62.83-62.83S259.64,0,224.94,0ZM256.36,94.25l-10.56-7.92c-5.55,4.93-12.85,7.92-20.85,7.92-17.35,0-31.42-14.07-31.42-31.42s14.07-31.42,31.42-31.42,31.42,14.07,31.42,31.42c0,6.19-1.79,11.95-4.87,16.81l4.87,14.61Z"/>
  </g>
  <g>
    <path class="cls-1" d="M1.74,158.65c1.16-2.32,2.74-4.11,4.75-5.36,2-1.25,4.24-1.88,6.7-1.88,2.11,0,3.96.43,5.55,1.29,1.59.86,2.82,1.98,3.67,3.38v-4.24h9.17v29.93h-9.17v-4.24c-.89,1.39-2.14,2.52-3.73,3.38-1.59.86-3.44,1.29-5.55,1.29-2.43,0-4.65-.63-6.65-1.9-2-1.27-3.59-3.07-4.75-5.42-1.16-2.34-1.74-5.05-1.74-8.13s.58-5.77,1.74-8.1ZM20.51,161.39c-1.27-1.32-2.82-1.98-4.64-1.98s-3.37.65-4.64,1.96c-1.27,1.31-1.9,3.1-1.9,5.39s.63,4.1,1.9,5.44c1.27,1.34,2.82,2.01,4.64,2.01s3.37-.66,4.64-1.98c1.27-1.32,1.9-3.13,1.9-5.42s-.64-4.09-1.9-5.42Z"/>
    <path class="cls-1" d="M37.79,158.65c1.27-2.32,3.04-4.11,5.31-5.36,2.27-1.25,4.87-1.88,7.8-1.88,3.75,0,6.89.98,9.41,2.95,2.52,1.97,4.17,4.74,4.96,8.31h-9.76c-.82-2.29-2.41-3.43-4.77-3.43-1.68,0-3.02.65-4.02,1.96-1,1.31-1.5,3.17-1.5,5.6s.5,4.3,1.5,5.6c1,1.31,2.34,1.96,4.02,1.96,2.36,0,3.95-1.14,4.77-3.43h9.76c-.79,3.5-2.45,6.26-4.99,8.26-2.54,2-5.67,3-9.39,3-2.93,0-5.53-.62-7.8-1.88-2.27-1.25-4.04-3.04-5.31-5.36-1.27-2.32-1.9-5.04-1.9-8.15s.63-5.83,1.9-8.15Z"/>
    <path class="cls-1" d="M69.58,158.65c1.27-2.32,3.04-4.11,5.31-5.36,2.27-1.25,4.87-1.88,7.8-1.88,3.75,0,6.89.98,9.41,2.95,2.52,1.97,4.17,4.74,4.96,8.31h-9.76c-.82-2.29-2.41-3.43-4.77-3.43-1.68,0-3.02.65-4.02,1.96-1,1.31-1.5,3.17-1.5,5.6s.5,4.3,1.5,5.6c1,1.31,2.34,1.96,4.02,1.96,2.36,0,3.95-1.14,4.77-3.43h9.76c-.79,3.5-2.45,6.26-4.99,8.26-2.54,2-5.67,3-9.39,3-2.93,0-5.53-.62-7.8-1.88-2.27-1.25-4.04-3.04-5.31-5.36-1.27-2.32-1.9-5.04-1.9-8.15s.63-5.83,1.9-8.15Z"/>
    <path class="cls-1" d="M107,180.32c-2.34-1.25-4.18-3.04-5.52-5.36-1.34-2.32-2.01-5.04-2.01-8.15s.68-5.78,2.04-8.12c1.36-2.34,3.22-4.14,5.58-5.39,2.36-1.25,5.01-1.88,7.94-1.88s5.58.63,7.94,1.88c2.36,1.25,4.22,3.05,5.58,5.39,1.36,2.34,2.04,5.05,2.04,8.12s-.69,5.78-2.06,8.13c-1.38,2.34-3.25,4.14-5.63,5.39-2.38,1.25-5.03,1.88-7.96,1.88s-5.57-.62-7.91-1.88ZM119.39,172.33c1.23-1.29,1.85-3.13,1.85-5.52s-.6-4.24-1.8-5.52c-1.2-1.29-2.67-1.93-4.42-1.93s-3.27.64-4.45,1.9c-1.18,1.27-1.77,3.12-1.77,5.55s.58,4.24,1.74,5.52c1.16,1.29,2.62,1.93,4.37,1.93s3.25-.64,4.48-1.93Z"/>
    <path class="cls-1" d="M164.27,151.84v29.93h-9.17v-4.08c-.93,1.32-2.19,2.39-3.78,3.19-1.59.8-3.35,1.21-5.28,1.21-2.29,0-4.31-.51-6.06-1.53-1.75-1.02-3.11-2.49-4.08-4.42-.97-1.93-1.45-4.2-1.45-6.81v-17.48h9.12v16.25c0,2,.52,3.56,1.56,4.67,1.04,1.11,2.43,1.66,4.18,1.66s3.2-.55,4.24-1.66c1.04-1.11,1.56-2.66,1.56-4.67v-16.25h9.17Z"/>
    <path class="cls-1" d="M196.85,154.93c2.09,2.27,3.14,5.39,3.14,9.36v17.48h-9.12v-16.25c0-2-.52-3.56-1.56-4.67-1.04-1.11-2.43-1.66-4.18-1.66s-3.15.55-4.18,1.66c-1.04,1.11-1.56,2.66-1.56,4.67v16.25h-9.17v-29.93h9.17v3.97c.93-1.32,2.18-2.37,3.75-3.14,1.57-.77,3.34-1.15,5.31-1.15,3.5,0,6.3,1.14,8.39,3.41Z"/>
    <path class="cls-1" d="M221.9,173.99v7.78h-4.67c-3.33,0-5.92-.81-7.78-2.44-1.86-1.63-2.79-4.28-2.79-7.96v-11.91h-3.65v-7.62h3.65v-7.29h9.17v7.29h6.01v7.62h-6.01v12.01c0,.89.21,1.54.64,1.93.43.39,1.14.59,2.15.59h3.27Z"/>
    <path class="cls-1" d="M226.25,158.65c1.16-2.32,2.74-4.11,4.75-5.36,2-1.25,4.24-1.88,6.7-1.88,2.11,0,3.96.43,5.55,1.29,1.59.86,2.82,1.98,3.67,3.38v-4.24h9.17v29.93h-9.17v-4.24c-.89,1.39-2.14,2.52-3.73,3.38-1.59.86-3.44,1.29-5.55,1.29-2.43,0-4.65-.63-6.65-1.9-2-1.27-3.58-3.07-4.75-5.42-1.16-2.34-1.74-5.05-1.74-8.13s.58-5.77,1.74-8.1ZM245.02,161.39c-1.27-1.32-2.82-1.98-4.64-1.98s-3.37.65-4.64,1.96c-1.27,1.31-1.9,3.1-1.9,5.39s.63,4.1,1.9,5.44c1.27,1.34,2.82,2.01,4.64,2.01s3.37-.66,4.64-1.98c1.27-1.32,1.9-3.13,1.9-5.42s-.64-4.09-1.9-5.42Z"/>
    <path class="cls-1" d="M288.7,154.93c2.09,2.27,3.14,5.39,3.14,9.36v17.48h-9.12v-16.25c0-2-.52-3.56-1.56-4.67-1.04-1.11-2.43-1.66-4.18-1.66s-3.15.55-4.18,1.66c-1.04,1.11-1.56,2.66-1.56,4.67v16.25h-9.17v-29.93h9.17v3.97c.93-1.32,2.18-2.37,3.75-3.14,1.57-.77,3.34-1.15,5.31-1.15,3.5,0,6.3,1.14,8.39,3.41Z"/>
    <path class="cls-1" d="M313.75,173.99v7.78h-4.67c-3.32,0-5.92-.81-7.78-2.44-1.86-1.63-2.79-4.28-2.79-7.96v-11.91h-3.65v-7.62h3.65v-7.29h9.17v7.29h6.01v7.62h-6.01v12.01c0,.89.21,1.54.64,1.93.43.39,1.14.59,2.15.59h3.27Z"/>
  </g>
  <g>
    <path class="cls-2" d="M3.06,229.7c2.04-4.07,4.81-7.21,8.32-9.4,3.51-2.19,7.43-3.29,11.75-3.29,3.7,0,6.94.75,9.73,2.26,2.79,1.5,4.94,3.48,6.44,5.92v-7.43h16.08v52.46h-16.08v-7.43c-1.57,2.44-3.75,4.42-6.53,5.92-2.79,1.5-6.03,2.26-9.73,2.26-4.26,0-8.15-1.11-11.66-3.34-3.51-2.22-6.28-5.39-8.32-9.5-2.04-4.1-3.06-8.85-3.06-14.24s1.02-10.12,3.06-14.2ZM35.96,234.49c-2.23-2.32-4.94-3.48-8.13-3.48s-5.91,1.14-8.13,3.43c-2.23,2.29-3.34,5.44-3.34,9.45s1.11,7.19,3.34,9.54c2.22,2.35,4.94,3.53,8.13,3.53s5.91-1.16,8.13-3.48c2.22-2.32,3.34-5.48,3.34-9.5s-1.11-7.18-3.34-9.5Z"/>
    <path class="cls-2" d="M66.13,229.7c2.04-4.07,4.81-7.21,8.32-9.4,3.51-2.19,7.43-3.29,11.75-3.29,3.45,0,6.6.72,9.45,2.16,2.85,1.44,5.09,3.38,6.72,5.83v-24.35h16.08v69.57h-16.08v-7.52c-1.5,2.51-3.65,4.51-6.44,6.02-2.79,1.5-6.03,2.26-9.73,2.26-4.32,0-8.24-1.11-11.75-3.34-3.51-2.22-6.28-5.39-8.32-9.5-2.04-4.1-3.06-8.85-3.06-14.24s1.02-10.12,3.06-14.2ZM99.03,234.49c-2.23-2.32-4.94-3.48-8.13-3.48s-5.91,1.14-8.13,3.43c-2.23,2.29-3.34,5.44-3.34,9.45s1.11,7.19,3.34,9.54c2.22,2.35,4.94,3.53,8.13,3.53s5.91-1.16,8.13-3.48c2.22-2.32,3.34-5.48,3.34-9.5s-1.11-7.18-3.34-9.5Z"/>
    <path class="cls-2" d="M152.05,255.18l11.38-37.42h17.11l-18.61,52.46h-19.84l-18.62-52.46h17.21l11.38,37.42Z"/>
    <path class="cls-2" d="M186.77,209.81c-1.79-1.66-2.68-3.71-2.68-6.16s.89-4.59,2.68-6.25c1.79-1.66,4.09-2.49,6.91-2.49s5.03.83,6.82,2.49c1.79,1.66,2.68,3.75,2.68,6.25s-.89,4.5-2.68,6.16c-1.79,1.66-4.06,2.49-6.82,2.49s-5.12-.83-6.91-2.49ZM201.67,217.76v52.46h-16.08v-52.46h16.08Z"/>
    <path class="cls-2" d="M212.37,229.7c2.22-4.07,5.33-7.21,9.31-9.4,3.98-2.19,8.54-3.29,13.68-3.29,6.58,0,12.08,1.72,16.5,5.17,4.42,3.45,7.32,8.31,8.7,14.57h-17.11c-1.44-4.01-4.23-6.02-8.37-6.02-2.95,0-5.3,1.14-7.05,3.43-1.76,2.29-2.63,5.56-2.63,9.82s.88,7.54,2.63,9.82c1.75,2.29,4.1,3.43,7.05,3.43,4.14,0,6.92-2.01,8.37-6.02h17.11c-1.38,6.14-4.29,10.97-8.74,14.48-4.45,3.51-9.93,5.26-16.45,5.26-5.14,0-9.7-1.1-13.68-3.29-3.98-2.19-7.08-5.33-9.31-9.4-2.23-4.07-3.34-8.84-3.34-14.29s1.11-10.21,3.34-14.29Z"/>
    <path class="cls-2" d="M317.12,247.84h-36.38c.25,3.26,1.3,5.75,3.15,7.47,1.85,1.72,4.12,2.59,6.82,2.59,4.01,0,6.8-1.69,8.37-5.08h17.11c-.88,3.45-2.46,6.55-4.75,9.31-2.29,2.76-5.16,4.92-8.6,6.49-3.45,1.57-7.3,2.35-11.56,2.35-5.14,0-9.72-1.1-13.73-3.29-4.01-2.19-7.15-5.33-9.4-9.4-2.26-4.07-3.39-8.84-3.39-14.29s1.11-10.21,3.34-14.29c2.22-4.07,5.34-7.21,9.35-9.4,4.01-2.19,8.62-3.29,13.82-3.29s9.59,1.07,13.54,3.2c3.95,2.13,7.03,5.17,9.26,9.12,2.22,3.95,3.34,8.55,3.34,13.82,0,1.5-.09,3.07-.28,4.7ZM300.95,238.91c0-2.76-.94-4.95-2.82-6.58-1.88-1.63-4.23-2.44-7.05-2.44s-4.97.78-6.82,2.35c-1.85,1.57-2.99,3.79-3.43,6.68h20.12Z"/>
  </g>
</svg>